<?xml version="1.0" encoding="utf-8"?>
<!-- Uploaded to: SVG Repo, www.svgrepo.com, Generator: SVG Repo Mixer Tools -->
<svg width="800px" height="800px" viewBox="0 0 1024 1024" class="icon"  version="1.1" xmlns="http://www.w3.org/2000/svg"><path d="M99.921936 529.985948c-45.564403-1.598751-81.5363-39.968774-80.736924-85.533177 1.598751-43.965652 36.771272-79.138173 80.736924-80.736924H448.449649s-41.567525-75.141296-43.166277-151.081967-3.197502-63.950039-3.197502-139.091335 123.903201-84.733802 127.900078 8.79313c4.796253 110.313817 48.761905 288.574551 295.768931 411.678377 0 171.066354 4.796253 359.71897 0 378.903981-66.348165 75.141296-160.674473 127.900078-270.98829 128.699453s-363.715847 4.796253-363.715847 4.796253c-44.765027-1.598751-79.937549-39.169399-78.338798-83.13505 1.598751-42.366901 35.971897-76.740047 78.338798-78.338798" fill="#FFD7C4" /><path d="M191.050742 1024c-54.357533-1.598751-95.925059-46.363778-94.326308-99.921936 1.598751-51.160031 43.166276-91.928181 93.526932-93.526932 8.79313-0.799375 15.98751 6.395004 16.786885 15.188134 0 8.79313-6.395004 15.98751-15.188134 16.786885-34.373146 0.799375-61.551913 28.777518-63.150663 63.150664-0.799375 35.971897 27.178767 65.54879 63.150663 67.147541 1.598751 0 254.201405-3.996877 362.916472-4.796253 95.925059-0.799375 187.053864-43.166276 255.800156-119.906323 2.398126-19.984387 0.799375-103.119438 0-184.655738-0.799375-55.156909-1.598751-117.508197-1.598751-177.461358-185.455113-95.125683-287.775176-240.612022-295.768931-420.471507-1.598751-39.169399-28.777518-52.758782-50.360656-51.959407-21.583138 0.799375-45.564403 14.388759-45.564402 42.366901 0 48.761905 0.799375 60.752537 1.598751 83.934427 0.799375 12.790008 0.799375 27.978142 1.598751 54.357533 1.598751 71.144418 40.76815 143.088212 41.567525 143.887588l12.790008 23.981264h-375.70648c-35.172521 0.799375-63.150664 29.576893-64.749414 64.749415-0.799375 36.771272 27.978142 67.946916 64.749414 68.746292 8.79313 0 15.98751 7.993755 15.188135 16.786885 0 8.79313-7.993755 15.98751-16.786885 15.188134-54.357533-1.598751-97.52381-47.163154-95.925059-102.320062 1.598751-51.959407 43.965652-94.326308 95.925059-95.925059h322.947697c-12.790008-28.777518-32.774395-80.736924-33.573771-134.295082-0.799375-25.580016-1.598751-41.567525-1.598751-53.558157-0.799375-23.981265-1.598751-35.971897-1.598751-85.533178 0-47.163154 39.169399-73.542545 76.740047-74.34192 38.370023-0.799375 80.736924 24.78064 83.135051 83.135051 7.993755 173.464481 104.718189 306.960187 286.9758 398.088993l8.79313 4.796253v7.993754c0 63.150664 0.799375 128.699454 1.598751 187.053865 1.598751 131.896956 1.598751 183.056987-1.598751 195.846994l-0.799375 3.996878-2.398127 3.197502c-75.141296 85.533177-175.862607 133.495706-282.978922 134.295082-107.116315 0-359.71897 3.996877-362.117096 3.996877z" fill="#191919" /><path d="M146.285714 692.259173c-47.163154 7.194379-93.526932-36.771272-93.526932-80.736925 0-47.962529 24.78064-76.740047 47.163154-80.736924" fill="#FFD7C4" /><path d="M135.893833 709.046058c-22.382514 0-44.765027-8.79313-63.150664-24.78064-22.382514-19.185012-35.971897-46.363778-35.971897-73.542545 0-55.956284 30.376269-91.128806 59.953162-96.724434 8.79313-1.598751 16.786885 3.996877 18.385636 12.790008 1.598751 8.79313-3.996877 16.786885-12.790008 18.385636-13.589383 2.398126-34.373146 24.78064-34.373146 65.54879 0 17.586261 9.592506 35.172521 24.780641 48.761905 15.188134 12.790008 33.57377 19.185012 50.360655 15.987509 8.79313-1.598751 16.786885 4.796253 18.385637 13.589384 1.598751 8.79313-4.796253 16.786885-13.589384 18.385636-3.197502 0.799375-7.993755 1.598751-11.990632 1.598751z" fill="#191919" /><path d="M191.050742 845.739266c-55.156909 4.796253-105.517564-21.583138-107.915691-72.743169-2.398126-39.169399 24.78064-74.34192 63.950039-80.736924" fill="#FFD7C4" /><path d="M177.461358 862.526151c-31.97502 0-61.551913-9.592506-81.536299-27.178766-18.385636-15.98751-27.978142-36.771272-29.576894-61.551913-3.197502-47.163154 30.376269-89.530055 77.539423-97.523809 8.79313-1.598751 16.786885 3.996877 18.385636 12.790008 1.598751 8.79313-4.796253 16.786885-12.790008 18.385636-31.175644 5.595628-52.758782 32.774395-50.360656 63.950039 0.799375 15.98751 7.194379 28.777518 18.385637 39.169399 16.786885 14.388759 43.166276 21.583138 71.943794 19.185011 8.79313-0.799375 16.786885 5.595628 17.58626 14.388759s-5.595628 16.786885-14.388758 17.586261c-5.595628 0.799375-10.391881 0.799375-15.188135 0.799375z" fill="#191919" /><path d="M840.943013 413.277127h139.890711c14.388759 0 26.379391 11.990632 26.379391 26.379391v541.976581c0 14.388759-11.990632 26.379391-26.379391 26.379391h-139.890711c-14.388759 0-26.379391-11.990632-26.379391-26.379391V439.656518c0-14.388759 11.990632-26.379391 26.379391-26.379391z" fill="#FFFFFF" /><path d="M980.833724 1024h-139.890711c-23.181889 0-42.366901-19.185012-42.366901-42.366901V439.656518c0-23.181889 19.185012-42.366901 42.366901-42.366901h139.890711c23.181889 0 42.366901 19.185012 42.366901 42.366901v541.976581c-0.799375 23.181889-19.185012 42.366901-42.366901 42.366901z m-139.890711-594.735363c-5.595628 0-10.391881 4.796253-10.391881 10.391881v541.976581c0 5.595628 4.796253 10.391881 10.391881 10.391881h139.890711c5.595628 0 10.391881-4.796253 10.391881-10.391881V439.656518c0-5.595628-4.796253-10.391881-10.391881-10.391881h-139.890711z" fill="#191919" /><path d="M913.686183 912.087432m-29.576893 0a29.576893 29.576893 0 1 0 59.153786 0 29.576893 29.576893 0 1 0-59.153786 0Z" fill="#709CD5" /><path d="M913.686183 957.651835c-24.78064 0-45.564403-20.783763-45.564403-45.564403s20.783763-45.564403 45.564403-45.564403 45.564403 20.783763 45.564402 45.564403c-0.799375 25.580016-20.783763 45.564403-45.564402 45.564403z m0-58.354411c-7.194379 0-13.589383 6.395004-13.589384 13.589383s6.395004 13.589383 13.589384 13.589383 13.589383-6.395004 13.589383-13.589383-6.395004-13.589383-13.589383-13.589383z" fill="#191919" /><path d="M942.4637 836.14676c-8.79313 0-15.98751-7.194379-15.98751-15.987509V472.430913c0-8.79313 7.194379-15.98751 15.98751-15.987509s15.98751 7.194379 15.98751 15.987509v347.728338c0 8.79313-7.194379 15.98751-15.98751 15.987509z" fill="#191919" /><path d="M278.18267 543.575332h-72.74317c-8.79313 0-15.98751-7.194379-15.987509-15.98751s7.194379-15.98751 15.987509-15.98751h72.74317c8.79313 0 15.98751 7.194379 15.98751 15.98751s-7.194379 15.98751-15.98751 15.98751z" fill="#191919" /><path d="M307.759563 705.848556h-72.74317c-8.79313 0-15.98751-7.194379-15.987509-15.98751s7.194379-15.98751 15.987509-15.98751h72.74317c8.79313 0 15.98751 7.194379 15.98751 15.98751s-7.194379 15.98751-15.98751 15.98751z" fill="#191919" /><path d="M339.734582 864.124902h-72.743169c-8.79313 0-15.98751-7.194379-15.98751-15.987509s7.194379-15.98751 15.98751-15.98751h72.743169c8.79313 0 15.98751 7.194379 15.98751 15.98751s-7.194379 15.98751-15.98751 15.987509z" fill="#191919" /></svg>