<?xml version="1.0" encoding="iso-8859-1"?>
<!-- Uploaded to: SVG Repo, www.svgrepo.com, Generator: SVG Repo Mixer Tools -->
<svg version="1.1" id="Layer_1" xmlns="http://www.w3.org/2000/svg" xmlns:xlink="http://www.w3.org/1999/xlink" 
	 viewBox="0 0 512 512" xml:space="preserve">
<path d="M256.216,25.515C149.432,23.667,50.552,81.619,0,175.699l0,0c50.312,94.104,149.088,152.104,255.784,150.176
	C362.568,327.731,461.448,269.779,512,175.699l0,0C461.68,81.595,362.904,23.603,256.216,25.515z"/>
<circle style="fill:#DBDBDB;" cx="255.984" cy="175.699" r="113.2"/>
<circle style="fill:#E21B1B;" cx="255.984" cy="175.699" r="95.32"/>
<g style="opacity:0.5;">
	<circle style="fill:#FFFFFF;" cx="208.72" cy="122.723" r="24"/>
</g>
<rect x="283.36" y="364.075" style="fill:#999999;" width="91.192" height="13.016"/>
<g>
	<rect x="301.592" y="400.555" style="fill:#E21B1B;" width="72.952" height="13.016"/>
	<rect x="210.392" y="364.075" style="fill:#E21B1B;" width="36.488" height="13.016"/>
</g>
<rect x="228.632" y="400.555" style="fill:#999999;" width="36.48" height="13.016"/>
<rect x="338.08" y="437.035" width="36.48" height="13.016"/>
<rect x="246.88" y="437.035" style="fill:#E21B1B;" width="36.48" height="13.016"/>
<rect x="429.264" y="364.075" width="36.48" height="13.016"/>
<g>
	<rect x="82.72" y="473.515" style="fill:#999999;" width="72.952" height="13.016"/>
	<rect x="192.16" y="473.515" style="fill:#999999;" width="72.952" height="13.016"/>
</g>
<rect x="283.36" y="473.515" style="fill:#E21B1B;" width="72.952" height="13.016"/>
<rect x="392.8" y="473.515" width="72.952" height="13.016"/>
<rect x="82.72" y="437.035" width="109.432" height="13.016"/>
<rect x="64.48" y="364.075" style="fill:#E21B1B;" width="109.432" height="13.016"/>
<rect x="46.256" y="400.555" style="fill:#999999;" width="109.416" height="13.016"/>
</svg>